<svg width="49" height="49" viewBox="0 0 49 49" fill="none" xmlns="http://www.w3.org/2000/svg">
<g id="Group">
<path id="Vector" opacity="0.2" fill-rule="evenodd" clip-rule="evenodd" d="M12.82 35.5C15.72 38.35 19.69 40.11 24.06 40.11C26.85 40.11 29.47 39.4 31.75 38.15L35.76 45.1C32.3 47.03 28.3 48.14 24.06 48.14C17.47 48.14 11.49 45.48 7.15002 41.18L12.82 35.51V35.5Z" fill="#C41F69" stroke="#414141" stroke-width="0.02" stroke-miterlimit="10"/>
<path id="Vector_2" fill-rule="evenodd" clip-rule="evenodd" d="M47.36 18.04C47.86 19.97 48.12 21.99 48.12 24.07C48.12 32.93 43.32 40.67 36.18 44.85L32.17 37.9C36.91 35.11 40.1 29.96 40.1 24.06C40.1 22.69 39.93 21.37 39.61 20.1L47.36 18.02V18.04Z" fill="#C41F69" stroke="#414141" stroke-width="0.02" stroke-miterlimit="10"/>
<path id="Vector_3" opacity="0.2" fill-rule="evenodd" clip-rule="evenodd" d="M3.07 12.31L10.02 16.32C8.75 18.62 8.03 21.26 8.03 24.06C8.03 28.36 9.73 32.27 12.48 35.15L6.81 40.82C2.6 36.49 0 30.58 0 24.07C0 19.8 1.12 15.79 3.07 12.31Z" fill="#C41F69" stroke="#414141" stroke-width="0.02" stroke-miterlimit="10"/>
<path id="Vector_4" fill-rule="evenodd" clip-rule="evenodd" d="M24.16 0C35.15 0.04 44.41 7.46 47.24 17.56L39.49 19.64C37.58 12.96 31.44 8.06 24.16 8.02V0Z" fill="#C41F69" stroke="#414141" stroke-width="0.02" stroke-miterlimit="10"/>
<path id="Vector_5" opacity="0.2" fill-rule="evenodd" clip-rule="evenodd" d="M23.6699 0.00999451V8.02999C17.9599 8.16999 12.9899 11.29 10.2599 15.9L3.31995 11.9C7.43995 4.88999 14.9999 0.149995 23.6699 0.00999451Z" fill="#C41F69" stroke="#414141" stroke-width="0.02" stroke-miterlimit="10"/>
</g>
</svg>
