<svg width="42" height="42" viewBox="0 0 42 42" fill="none" xmlns="http://www.w3.org/2000/svg">
<g id="Active Migration 1 2" clip-path="url(#clip0_2002_114)">
<g id="Layer 1">
<g id="Group">
<g id="Group_2">
<path id="Vector" d="M7.59998 17.07C7.72998 16.93 7.84998 16.79 7.98998 16.66C9.76998 14.88 11.55 13.09 13.34 11.31C13.69 10.96 13.87 10.96 14.23 11.31C14.99 12.07 15.75 12.83 16.51 13.59C16.87 13.95 16.88 14.08 16.55 14.5C16.89 14.84 17.23 15.19 17.58 15.52C17.96 15.88 18.41 16.01 18.92 15.85C19.45 15.69 19.98 15.59 20.53 15.71C20.66 15.74 20.77 15.69 20.88 15.64C21.82 15.21 22.78 15.17 23.75 15.55C24.16 15.71 24.57 15.81 25 15.64C25.4 15.48 25.64 15.12 25.94 14.84C26.02 14.77 25.94 14.72 25.9 14.67C25.53 14.25 25.54 14.14 25.93 13.74C26.7 12.97 27.46 12.21 28.23 11.44C28.55 11.12 28.74 11.12 29.06 11.44C30.71 13.09 32.36 14.73 34 16.38C34.31 16.69 34.32 16.88 34 17.19C33.21 17.98 32.42 18.77 31.63 19.56C31.32 19.87 31.14 19.88 30.82 19.57C30.72 19.48 30.67 19.46 30.57 19.57C30.18 19.97 29.79 20.36 29.4 20.75C29.21 20.94 29.13 21.17 29.08 21.42C28.81 22.84 28.12 24.03 27.09 25.04C26.97 25.16 26.92 25.24 27.02 25.43C27.4 26.18 27.02 27.1 26.24 27.39C26.11 27.44 26.04 27.47 26.05 27.63C26.11 28.22 25.88 28.69 25.39 29C24.9 29.31 24.38 29.3 23.87 29C23.85 28.99 23.82 28.98 23.8 28.97C23.37 29.93 22.23 30.2 21.4 29.44C21.2 29.85 20.9 30.16 20.44 30.28C20.21 30.34 19.97 30.35 19.75 30.29C19.63 30.26 19.56 30.29 19.48 30.36C19 30.78 18.45 30.89 17.86 30.65C17.3 30.42 16.98 29.97 16.92 29.36C16.91 29.26 16.9 29.21 16.78 29.2C15.94 29.14 15.36 28.43 15.36 27.72C15.36 27.6 15.3 27.6 15.21 27.6C13.97 27.53 13.29 26.11 14.08 25.12C14.18 25 14.09 24.96 14.03 24.89C13.34 24.18 12.8 23.37 12.47 22.44C12.36 22.13 12.26 21.82 12.2 21.5C12.13 21.12 11.95 20.81 11.67 20.55C11.57 20.46 11.47 20.36 11.38 20.26C11.21 20.08 11.08 19.89 10.8 20.16C10.65 20.31 10.43 20.22 10.29 20.08C9.38998 19.18 8.49998 18.28 7.60998 17.37C7.60998 17.27 7.60998 17.16 7.60998 17.06L7.59998 17.07ZM19.58 16.62C19.41 16.58 19.3 16.65 19.18 16.68C18.38 16.9 17.66 16.75 17.04 16.19C16.71 15.89 16.4 15.58 16.1 15.26C15.96 15.11 15.89 15.13 15.76 15.26C14.54 16.49 13.31 17.71 12.09 18.94C11.68 19.35 11.67 19.36 12.09 19.77C12.55 20.21 12.92 20.69 13.04 21.33C13.27 22.55 13.88 23.57 14.76 24.43C14.87 24.54 14.98 24.59 15.14 24.57C16.01 24.5 16.73 25.12 16.79 25.99C16.79 26.12 16.83 26.17 16.97 26.17C17.66 26.18 18.32 26.74 18.4 27.56C18.41 27.69 18.44 27.73 18.58 27.74C19.35 27.8 19.96 28.46 19.97 29.22C19.97 29.51 20.05 29.56 20.32 29.42C20.47 29.34 20.57 29.22 20.61 29.05C20.67 28.78 20.54 28.59 20.37 28.41C19.51 27.55 18.65 26.7 17.8 25.84C17.55 25.59 17.51 25.33 17.69 25.14C17.89 24.93 18.13 24.97 18.41 25.24C18.45 25.28 18.48 25.31 18.52 25.35C19.65 26.48 20.77 27.6 21.9 28.73C21.99 28.81 22.08 28.9 22.18 28.96C22.36 29.07 22.56 29.06 22.74 28.96C22.93 28.85 23.01 28.68 23.01 28.46C23.01 28.24 22.88 28.09 22.74 27.95C21.68 26.89 20.62 25.83 19.56 24.77C19.49 24.7 19.41 24.62 19.36 24.54C19.25 24.36 19.26 24.17 19.42 24.02C19.57 23.87 19.76 23.85 19.94 23.96C20.03 24.01 20.1 24.09 20.17 24.17C21.48 25.47 22.78 26.78 24.08 28.08C24.15 28.15 24.23 28.22 24.32 28.28C24.52 28.42 24.72 28.42 24.93 28.3C25.14 28.18 25.21 27.99 25.19 27.75C25.17 27.55 25.05 27.42 24.92 27.29C23.51 25.88 22.1 24.47 20.69 23.06C20.44 22.81 20.41 22.55 20.6 22.36C20.8 22.16 21.04 22.19 21.3 22.45C21.6 22.75 21.9 23.05 22.2 23.35C23.21 24.36 24.22 25.37 25.23 26.38C25.39 26.54 25.57 26.68 25.82 26.63C26.04 26.59 26.19 26.46 26.26 26.24C26.35 25.96 26.22 25.76 26.04 25.57C24.32 23.86 22.61 22.14 20.9 20.42C20.77 20.29 20.71 20.32 20.6 20.43C20.17 20.86 19.76 21.31 19.3 21.7C18.77 22.16 18.14 22.22 17.51 21.93C16.4 21.41 16.19 20.04 17.07 19.13C17.52 18.66 17.99 18.21 18.45 17.75C18.82 17.38 19.2 17.01 19.59 16.62H19.58ZM23.66 21.97C24.53 22.84 25.36 23.67 26.19 24.5C26.27 24.58 26.32 24.6 26.41 24.51C27.3 23.66 27.93 22.66 28.19 21.44C28.29 20.97 28.43 20.52 28.78 20.17C29.16 19.79 29.53 19.4 29.92 19.03C30.06 18.9 30.06 18.83 29.92 18.7C28.89 17.68 27.87 16.66 26.85 15.64C26.61 15.4 26.61 15.4 26.38 15.64C26.04 15.99 25.69 16.34 25.2 16.5C24.6 16.7 24.04 16.6 23.46 16.38C22.45 15.99 21.45 16.1 20.65 16.83C19.6 17.78 18.62 18.82 17.62 19.82C17.43 20.01 17.35 20.26 17.41 20.54C17.56 21.23 18.33 21.47 18.85 20.98C19.27 20.59 19.66 20.17 20.06 19.77C20.42 19.42 20.77 19.06 21.13 18.71C21.35 18.5 21.59 18.49 21.77 18.68C21.95 18.86 21.94 19.1 21.73 19.33C21.65 19.42 21.56 19.51 21.47 19.59C21.38 19.66 21.38 19.72 21.47 19.8C21.66 19.97 21.84 20.17 22.04 20.33C22.73 20.85 23.43 21.31 24.36 21.01C24.62 20.93 24.81 21.07 24.87 21.32C24.93 21.55 24.81 21.74 24.56 21.84C24.28 21.94 23.99 21.96 23.66 22V21.97ZM15.74 14.07C15.74 14.07 15.68 14 15.65 13.97C15.06 13.38 14.47 12.8 13.89 12.21C13.8 12.12 13.75 12.13 13.67 12.21C12.04 13.85 10.4 15.48 8.76998 17.11C8.66998 17.21 8.66998 17.26 8.76998 17.35C9.34998 17.92 9.91998 18.5 10.5 19.08C10.59 19.17 10.64 19.2 10.74 19.09C12.37 17.45 14.01 15.82 15.64 14.18C15.68 14.14 15.71 14.11 15.75 14.06L15.74 14.07ZM31.22 18.77C31.22 18.77 31.31 18.69 31.35 18.65C31.92 18.08 32.49 17.51 33.06 16.94C33.16 16.84 33.18 16.79 33.06 16.68C31.62 15.25 30.19 13.82 28.76 12.38C28.65 12.27 28.6 12.28 28.5 12.38C27.94 12.95 27.37 13.52 26.79 14.09C26.69 14.19 26.67 14.24 26.79 14.35C28.23 15.78 29.66 17.21 31.09 18.65C31.13 18.69 31.16 18.72 31.22 18.77ZM16.23 27.67C16.22 28.06 16.49 28.36 16.87 28.36C17.25 28.36 17.53 28.11 17.55 27.74C17.57 27.34 17.29 27.04 16.9 27.03C16.53 27.03 16.24 27.3 16.23 27.67ZM18.43 29.93C18.82 29.93 19.11 29.66 19.11 29.27C19.11 28.89 18.85 28.61 18.47 28.6C18.08 28.59 17.79 28.86 17.79 29.25C17.79 29.63 18.06 29.91 18.43 29.92V29.93ZM15.32 25.44C14.94 25.42 14.64 25.68 14.62 26.05C14.6 26.45 14.86 26.74 15.24 26.76C15.64 26.78 15.93 26.52 15.94 26.13C15.95 25.75 15.69 25.46 15.32 25.45V25.44Z" fill="#414141" stroke="#414141" stroke-width="0.14" stroke-miterlimit="10"/>
<path id="Vector_2" d="M10.82 17.55C10.82 17.77 10.61 17.97 10.38 17.97C10.15 17.97 9.94995 17.76 9.95995 17.54C9.95995 17.31 10.17 17.12 10.4 17.12C10.63 17.12 10.83 17.33 10.82 17.55Z" fill="#414141" stroke="#414141" stroke-width="0.14" stroke-miterlimit="10"/>
<path id="Vector_3" d="M31.63 17.54C31.39 17.54 31.2 17.34 31.21 17.11C31.21 16.88 31.42 16.69 31.65 16.7C31.88 16.7 32.08 16.91 32.07 17.13C32.07 17.36 31.87 17.55 31.63 17.54Z" fill="#414141" stroke="#414141" stroke-width="0.14" stroke-miterlimit="10"/>
</g>
<path id="Vector_4" d="M20.92 41.83C9.38 41.83 0 32.45 0 20.92C0 9.39 9.38 0 20.92 0C32.46 0 41.84 9.38 41.84 20.92C41.84 32.46 32.46 41.84 20.92 41.84V41.83ZM20.92 2.3C10.65 2.3 2.3 10.65 2.3 20.92C2.3 31.19 10.65 39.53 20.91 39.53C31.17 39.53 39.52 31.18 39.52 20.92C39.52 10.66 31.18 2.3 20.92 2.3Z" fill="#414141"/>
</g>
</g>
</g>
<defs>
<clipPath id="clip0_2002_114">
<rect width="41.83" height="41.83" fill="white"/>
</clipPath>
</defs>
</svg>
