<svg width="42" height="40" viewBox="0 0 42 40" fill="none" xmlns="http://www.w3.org/2000/svg">
<g id="BlueCard Eligible 1 1" clip-path="url(#clip0_2002_59)">
<g id="Layer 1">
<path id="Vector" d="M37.6401 24.05C38.4901 23.37 39.4701 22.85 40.2401 22.06C41.5601 20.71 41.6301 19.18 40.4501 17.71C40.0201 17.18 39.4701 16.79 38.9301 16.39C38.2701 15.9 37.5401 15.51 36.9501 14.92C36.6801 14.65 36.6101 14.38 36.6801 14.04C36.7701 13.57 36.8701 13.1 37.0501 12.65C37.3101 12.01 37.5101 11.35 37.6901 10.69C38.3201 8.33 37.3101 6.72 34.9201 6.39C33.9301 6.25 32.9101 6.4 31.9101 6.35C30.2801 6.26 30.5401 6.35 29.9501 5.01C29.8601 4.81 29.8001 4.59 29.7501 4.37C29.5501 3.62 29.3301 2.87 29.0101 2.16C28.5701 1.19 27.9501 0.380004 26.8401 0.100004C25.8101 -0.169996 24.9301 0.210004 24.0701 0.720004C23.2601 1.21 22.5301 1.81 21.7901 2.39C21.0701 2.94 20.3601 3.08 19.6101 2.47C19.3501 2.26 19.0801 2.08 18.8201 1.88C18.1001 1.32 17.3801 0.750004 16.5401 0.360004C14.9201 -0.389996 13.3901 0.110004 12.5201 1.67C12.2701 2.12 12.0901 2.59 11.9201 3.07C11.6101 3.91 11.4601 4.8 11.0801 5.63C10.8901 6.06 10.6301 6.27 10.1401 6.3C9.66006 6.33 9.19006 6.36 8.71006 6.35C7.78006 6.35 6.85006 6.29 5.93006 6.45C4.60006 6.68 3.67006 7.62 3.44006 8.94C3.33006 9.6 3.49006 10.22 3.63006 10.84C3.87006 11.89 4.40006 12.85 4.60006 13.92C4.68006 14.36 4.63006 14.69 4.27006 14.99C3.90006 15.3 3.54006 15.61 3.14006 15.87C2.41006 16.35 1.69006 16.83 1.08006 17.45C-0.249941 18.81 -0.329941 20.36 0.870059 21.84C1.35006 22.43 1.97006 22.85 2.58006 23.28C3.18006 23.7 3.81006 24.08 4.34006 24.6C4.61006 24.86 4.69006 25.14 4.62006 25.48C4.52006 25.99 4.40006 26.5 4.21006 26.99C3.92006 27.74 3.67006 28.51 3.51006 29.31C3.16006 31.04 3.92006 32.44 5.50006 32.95C6.10006 33.14 6.73006 33.17 7.36006 33.19C8.36006 33.21 9.37006 33.08 10.3701 33.26C10.6501 33.31 10.8601 33.41 10.9901 33.69C11.2301 34.19 11.4201 34.7 11.5801 35.24C11.8801 36.31 12.1601 37.39 12.8401 38.3C13.5301 39.22 14.4401 39.71 15.6101 39.44C16.5401 39.23 17.4001 38.85 18.1501 38.25C18.6201 37.88 19.0901 37.5 19.5501 37.13C20.2501 36.57 20.9601 36.48 21.6901 37.07C21.9501 37.28 22.2201 37.46 22.4801 37.66C23.1801 38.2 23.8701 38.75 24.6801 39.14C26.3401 39.95 27.9101 39.45 28.8101 37.83C29.1001 37.3 29.2901 36.74 29.4901 36.17C29.7601 35.38 29.9101 34.55 30.2901 33.79C30.4601 33.45 30.6901 33.32 31.0401 33.25C31.7601 33.12 32.4701 33.18 33.1901 33.17C33.6801 33.17 34.1801 33.19 34.6701 33.17C36.9901 33.08 38.2601 31.43 37.7801 29.16C37.5701 28.17 37.1301 27.26 36.8801 26.29C36.4901 24.81 36.4501 25 37.6401 24.05ZM27.2801 18.99C24.7401 20.9 22.2001 22.81 19.6501 24.71C18.9401 25.24 18.2601 25.17 17.6301 24.54C16.4201 23.33 15.2101 22.12 14.0001 20.91C13.3401 20.25 13.3001 19.39 13.9001 18.79C14.5001 18.18 15.3701 18.21 16.0501 18.89C16.8801 19.71 17.7101 20.53 18.5301 21.38C18.7701 21.63 18.9201 21.67 19.2301 21.44C21.2701 19.88 23.3201 18.35 25.3701 16.81C26.3601 16.07 27.5601 16.42 27.8201 17.54C27.8401 17.63 27.8401 17.72 27.8601 17.81C27.8301 18.28 27.6701 18.7 27.2901 18.99H27.2801Z" fill="#414141"/>
</g>
</g>
<defs>
<clipPath id="clip0_2002_59">
<rect width="41.29" height="39.53" fill="white"/>
</clipPath>
</defs>
</svg>
