<svg width="22" height="22" viewBox="0 0 22 22" fill="none" xmlns="http://www.w3.org/2000/svg">
<g id="List 2" clip-path="url(#clip0_2002_634)">
<g id="Layer 1">
<g id="Group">
<path id="Vector" d="M11.0493 6.45895e-06C12.3177 6.45895e-06 13.5862 -0.0281987 14.8546 0.0705193C15.5311 0.12693 16.1935 0.211545 16.8418 0.437186C17.4196 0.634622 17.7156 1.22693 17.5464 1.79103C17.3632 2.36924 16.8136 2.7077 16.2217 2.53847C15.1224 2.22821 14.009 2.22821 12.8815 2.21411C11.2889 2.20001 9.71044 2.1859 8.11787 2.22821C7.21588 2.25642 6.2998 2.28462 5.45419 2.6936C3.52338 3.62437 2.40999 5.13334 2.29724 7.31924C2.1704 9.54744 2.21268 11.7897 2.25496 14.018C2.26906 15.0897 2.3818 16.1474 2.97373 17.0782C3.98847 18.6859 5.39782 19.6167 7.32863 19.7154C9.55541 19.8282 11.7963 19.8 14.0231 19.7577C15.0942 19.7436 16.1512 19.6308 17.0814 19.0385C18.688 18.0231 19.6182 16.5987 19.7168 14.6808C19.8155 12.7628 19.7873 10.8308 19.7732 8.91283C19.7732 8.37693 20.0269 7.96796 20.4779 7.78462C21.1967 7.50257 21.9718 8.01026 21.9859 8.7859C22.0141 10.8449 22.0423 12.8898 21.9295 14.9487C21.7463 18.0372 19.59 20.7731 16.6304 21.6474C15.7566 21.9013 14.8546 21.9718 13.9667 21.9859C12.0077 22.0282 10.0487 22.0423 8.08968 21.9859C6.87764 21.9577 5.6515 21.859 4.53811 21.3231C2.21268 20.1949 0.718767 18.418 0.225493 15.8513C0.0140904 14.9064 0.028184 13.9474 0.0140904 13.0026C-0.0140966 11.3385 -0.0140966 9.68847 0.028184 8.02437C0.056371 6.69872 0.197306 5.38719 0.831515 4.18847C2.00128 2.05898 3.72069 0.662827 6.14478 0.197442C7.08904 6.45942e-06 8.0474 6.45895e-06 9.00576 6.45895e-06C9.68225 6.45895e-06 10.3587 6.45895e-06 11.0352 6.45895e-06H11.0493Z" fill="#1163A2"/>
<path id="Vector_2" d="M5.58105 9.9C5.58105 9.42051 5.82064 9.08205 6.24344 8.88462C6.65216 8.70128 7.13134 8.7859 7.46958 9.13846C8.41385 10.0833 9.35812 11.0282 10.3165 11.9731C10.4292 12.0859 10.5561 12.1987 10.6547 12.3256C10.7534 12.4385 10.8097 12.4667 10.9084 12.2974C11.8245 10.6897 12.9097 9.19487 14.1499 7.82693C15.9539 5.85257 18.0115 4.20257 20.3229 2.87692C20.8725 2.56667 21.5349 2.75 21.845 3.2718C22.155 3.80769 21.9859 4.45641 21.4222 4.78077C19.8014 5.72564 18.3075 6.81154 16.9545 8.10898C14.9814 9.98462 13.3889 12.1423 12.1768 14.5962C12.0359 14.8923 11.8668 15.1603 11.5426 15.3013C11.0916 15.4987 10.6406 15.4141 10.2601 15.0192C9.14671 13.9051 8.01923 12.791 6.90584 11.6628C6.58169 11.3385 6.24344 11.0141 5.91929 10.6756C5.6938 10.45 5.56696 10.1962 5.58105 9.8718V9.9Z" fill="#1163A2"/>
</g>
</g>
</g>
<defs>
<clipPath id="clip0_2002_634">
<rect width="22" height="22" fill="white"/>
</clipPath>
</defs>
</svg>
