<?xml version="1.0" encoding="UTF-8"?>
<svg id="Layer_2" data-name="Layer 2" xmlns="http://www.w3.org/2000/svg" viewBox="0 0 37.39 99.4">
  <defs>
    <style>
      .cls-1 {
        fill: #1163a2;
      }

      .cls-2 {
        fill: #414141;
      }

      .cls-3 {
        fill: #c41f69;
      }
    </style>
  </defs>
  <g id="Layer_1-2" data-name="Layer 1">
    <g>
      <circle class="cls-1" cx="20.41" cy="47.26" r="5.19" transform="translate(-31.07 48.03) rotate(-67.5)"/>
      <path class="cls-2" d="M11.8,25.45l.33-.43c.19-.24,.51-.34,.8-.25l.52,.16-.43-.33c-.24-.19-.34-.51-.25-.8l.16-.52-.33,.43c-.19,.24-.51,.34-.8,.25l-.52-.16,.43,.33c.24,.19,.34,.51,.25,.8l-.16,.52Z"/>
      <path class="cls-2" d="M8.31,20.98l-.33,.43c-.19,.24-.51,.34-.8,.25l-.52-.16,.43,.33c.24,.19,.34,.51,.25,.8l-.16,.52,.33-.43c.19-.24,.51-.34,.8-.25l.52,.16-.43-.33c-.24-.19-.34-.51-.25-.8l.16-.52Z"/>
      <path class="cls-3" d="M13.14,18.74l2.75,2.41s.45-.32,.43-.89l-1.28-3.69,2.59-4.75,6.78,5.72s.29,.2,.61-.21c0,0,.41-.49-.04-1.07l-5-8.93,2.37-4.47s.8-2.2-.25-2.84c0,0-1.41-.36-2.69,1.85l-2.15,3.95-10.6,1.02s-.81,.28-.47,1.04l8.71,2.46-2.53,4.74-3.8,1.12s-.51,.46-.37,.8l3.48,.87s-.04,.79,.24,1.1c.1,.05,.23,.1,.42,.12,.17-.03,.43-.12,.82-.36Z"/>
      <path class="cls-2" d="M10.02,23.66c.03-.07,.05-.14,.08-.21h0s.12-.15,.12-.15c.57-.72,1.52-1.02,2.4-.75l1.56,.48-1.28-1c-.72-.57-1.02-1.52-.75-2.4l.16-.53s0,0,.01,0c-.19-.02-.32-.07-.42-.12,0,0,0,0,0,.01l-.29,.37c-.57,.72-1.52,1.02-2.4,.75l-1.56-.48,1.28,1c.72,.57,1.02,1.52,.75,2.4l-.07,.23s0,0,0,0h0c-.04,.08-.07,.15-.11,.22,.17-.02,.36,0,.51,.18Z"/>
      <path class="cls-2" d="M8.17,79.15c-.22-.38-.44-.76-.65-1.15-.76-1.38-1.45-2.82-2.04-4.29-.16-.41-.32-.82-.47-1.24-.09-.24-.17-.47-.25-.71-.08-.25-.17-.5-.25-.76-.08-.25-.16-.51-.24-.77-.37-1.22-.69-2.46-.94-3.71-.08-.38-.16-.77-.22-1.16,0-.03-.01-.06-.01-.09-.07-.36-.13-.71-.18-1.07-.17-1.1-.3-2.21-.38-3.33-.04-.39-.06-.78-.08-1.17-.17-2.99-.08-5.99,.22-8.95,.65-6.38,2.22-12.68,4.25-18.75,.93-2.82,1.99-5.6,3.1-8.36-.15-.17-.34-.2-.51-.18-1.39,2.63-2.67,5.33-3.81,8.08-1.94,4.64-3.49,9.52-4.51,14.45C.19,50.94-.24,56.05,.13,61.09c.08,1.16,.21,2.32,.38,3.47,.05,.35,.11,.7,.17,1.06,.07,.39,.14,.78,.22,1.16,.34,1.68,.78,3.34,1.33,4.98,.03,.08,.05,.15,.08,.23,.13,.38,.26,.75,.4,1.12,.34,.91,.71,1.81,1.12,2.68,.36,.78,.74,1.54,1.16,2.3,3.3,6.07,8.17,11.25,13.94,15.06,4.21,2.76,8.82,5.01,13.71,6.24-9.92-4-18.97-11.03-24.45-20.25Z"/>
      <path class="cls-1" d="M34.47,55.93c-6.97,1.79-12.12,1.42-15.92-.16-.38-.1-.89-.36-1.4-.66l-5.59,12.81-1.63-2.64,2.17-.07,4.54-10.41c-.07-.04-.14-.09-.2-.13l-4.49,10.3-2.16,.07-1.74,.06,7.26-11.2c-.2-.14-.32-.24-.32-.24-8.08-6.46-7.08-19.73-7.08-19.73-15.6,50,25.64,63.61,26.18,63.78-34.28-27.29-8.78-38.77,.39-41.78Z"/>
      <path class="cls-2" d="M34.47,55.93c.94-.24,1.92-.52,2.92-.84-.14,.03-1.27,.3-2.92,.84Z"/>
    </g>
  </g>
</svg>