<svg width="32" height="24" viewBox="0 0 32 24" fill="none" xmlns="http://www.w3.org/2000/svg">
<g id="Menu 1" clip-path="url(#clip0_2002_655)">
<g id="Layer 1">
<g id="Group">
<path id="Vector" d="M31.1 2.37C31 2.42 31.02 2.53 30.99 2.6C30.69 3.39 30 3.88 29.15 3.88C20.08 3.88 11.01 3.88 1.95 3.88C0.85 3.89 0 3.03 0 1.93C0 0.85 0.86 0 1.95 0C11.02 0 20.09 0 29.15 0C30.09 0 30.82 0.59 31.04 1.52C31.04 1.54 31.07 1.56 31.09 1.58V2.37H31.1Z" fill="#414141"/>
<path id="Vector_2" d="M31.1 12.09C31 12.14 31.02 12.25 30.99 12.32C30.69 13.11 30 13.6 29.15 13.6C20.08 13.6 11.01 13.6 1.95 13.6C0.85 13.61 0 12.75 0 11.65C0 10.57 0.86 9.72 1.95 9.72C11.02 9.72 20.09 9.72 29.15 9.72C30.09 9.72 30.82 10.31 31.04 11.24C31.04 11.26 31.08 11.28 31.09 11.3V12.09H31.1Z" fill="#414141"/>
<path id="Vector_3" d="M31.1 21.81C31 21.86 31.02 21.97 30.99 22.04C30.69 22.83 30 23.32 29.15 23.32C20.08 23.32 11.01 23.32 1.95 23.32C0.85 23.33 0 22.47 0 21.37C0 20.29 0.86 19.44 1.95 19.44C11.02 19.44 20.09 19.44 29.15 19.44C30.09 19.44 30.82 20.03 31.04 20.96C31.04 20.98 31.08 21 31.09 21.02V21.81H31.1Z" fill="#414141"/>
</g>
</g>
</g>
<defs>
<clipPath id="clip0_2002_655">
<rect width="31.1" height="23.33" fill="white"/>
</clipPath>
</defs>
</svg>
