<svg width="29" height="33" viewBox="0 0 29 33" fill="none" xmlns="http://www.w3.org/2000/svg">
<g id="Notification 1" clip-path="url(#clip0_2002_649)">
<g id="Layer 1">
<g id="Group">
<path id="Vector" d="M13.73 32.83C13.24 32.65 12.72 32.56 12.25 32.31C10.99 31.63 10.16 30.61 9.78999 29.24C9.72999 29.02 9.63999 28.98 9.44999 28.98C6.66999 28.98 3.88999 28.98 1.11999 28.98C0.659989 28.98 0.299989 28.83 0.109989 28.41C-0.0900111 27.97 0.0599889 27.59 0.379989 27.25C2.38999 25.11 3.67999 22.59 4.23999 19.71C4.42999 18.72 4.50999 17.72 4.50999 16.72C4.50999 15.69 4.46999 14.67 4.50999 13.64C4.68999 9.46 6.70999 6.49001 10.47 4.68001C10.74 4.55 11.02 4.45001 11.3 4.36001C11.48 4.30001 11.56 4.22001 11.56 4.01001C11.56 3.42001 11.49 2.84001 11.62 2.25001C11.91 0.850005 13.28 -0.129995 14.75 0.0100052C16.16 0.150005 17.3 1.40001 17.31 2.82001C17.31 3.22001 17.33 3.61001 17.31 4.01001C17.3 4.23001 17.39 4.29001 17.57 4.36001C20.77 5.50001 22.89 7.68 23.94 10.9C24.23 11.79 24.36 12.7 24.37 13.64C24.39 15.07 24.32 16.5 24.42 17.93C24.58 20.32 25.28 22.54 26.5 24.6C27.08 25.59 27.79 26.48 28.56 27.32C29.09 27.89 28.87 28.72 28.16 28.94C28.02 28.98 27.89 28.97 27.75 28.97C24.98 28.97 22.22 28.97 19.45 28.97C19.23 28.97 19.13 29.02 19.06 29.26C18.51 31.14 17.25 32.29 15.35 32.75C15.23 32.78 15.09 32.7 15 32.83H13.72H13.73ZM25.79 27.05C25.55 26.69 25.32 26.37 25.11 26.03C23.61 23.67 22.74 21.1 22.51 18.31C22.39 16.87 22.47 15.43 22.45 13.99C22.45 13.36 22.39 12.73 22.26 12.11C21.33 7.85 17.19 5.09001 12.92 5.94001C9.01999 6.72001 6.41999 9.97001 6.41999 13.96C6.41999 14.95 6.41999 15.95 6.41999 16.94C6.39999 20.31 5.46999 23.4 3.62999 26.23C3.44999 26.5 3.26999 26.77 3.06999 27.05H25.79ZM11.76 29C12.05 30.11 13.33 30.98 14.56 30.91C15.75 30.84 16.96 29.93 17.1 29H11.77H11.76ZM14.43 3.86001C14.43 3.86001 14.43 3.86001 14.43 3.85001H15.37C15.37 3.52001 15.38 3.19001 15.39 2.86001C15.39 2.85001 15.39 2.84001 15.39 2.83001C15.33 2.32001 14.91 1.93001 14.43 1.93001C13.93 1.93001 13.51 2.34001 13.47 2.86001C13.46 3.07001 13.48 3.29001 13.47 3.50001C13.44 3.79001 13.49 3.93001 13.83 3.86001C14.02 3.82001 14.23 3.86001 14.44 3.86001H14.43Z" fill="#414141"/>
<path id="Vector_2" d="M0.0300445 13.36C0.160044 9.58001 1.55004 6.32001 4.20004 3.62001C4.60004 3.22001 5.19004 3.20001 5.58004 3.57001C5.99004 3.95001 5.99004 4.56001 5.56004 5.00001C4.41004 6.17001 3.51004 7.50001 2.88004 9.02001C2.24004 10.56 1.95004 12.16 1.93004 13.81C1.93004 14.3 1.56004 14.7 1.10004 14.75C0.610044 14.81 0.140044 14.51 0.0400445 14.03C-0.00995551 13.82 0.0400445 13.58 0.0400445 13.36H0.0300445Z" fill="#414141"/>
<path id="Vector_3" d="M28.8501 13.4C28.8501 13.53 28.8501 13.66 28.8501 13.78C28.8501 14.33 28.4401 14.74 27.9101 14.75C27.3601 14.75 26.9401 14.35 26.9301 13.79C26.8901 11.33 26.2501 9.04 24.9001 6.97C24.4301 6.25 23.8901 5.59 23.2901 4.98C22.9901 4.68 22.9001 4.32 23.0401 3.92C23.1701 3.56 23.4501 3.35 23.8301 3.31C24.1601 3.27 24.4401 3.39 24.6701 3.62C26.6301 5.62 27.9301 7.97 28.5301 10.7C28.7201 11.59 28.8301 12.49 28.8501 13.39V13.4Z" fill="#414141"/>
</g>
</g>
</g>
<defs>
<clipPath id="clip0_2002_649">
<rect width="28.86" height="32.83" fill="white"/>
</clipPath>
</defs>
</svg>
