<svg width="40" height="40" viewBox="0 0 40 40" fill="none" xmlns="http://www.w3.org/2000/svg">
<g id="Preparation Journey 1 2" opacity="0.2" clip-path="url(#clip0_2002_122)">
<g id="Layer 1">
<g id="Group">
<path id="Vector" d="M0.0400338 17.41C0.0100338 9.27001 5.76003 2.13001 13.69 0.440009C22.74 -1.48999 31.6 3.77001 34.09 12.67C35.62 18.14 34.63 23.22 31.28 27.81C31.04 28.13 31.09 28.28 31.35 28.54C33.88 31.05 36.4 33.57 38.92 36.1C40.04 37.23 39.68 38.98 38.23 39.46C37.4 39.73 36.69 39.5 36.08 38.88C33.56 36.35 31.03 33.84 28.53 31.31C28.27 31.05 28.13 31.04 27.84 31.26C25.33 33.15 22.51 34.29 19.38 34.63C10.56 35.59 2.62003 30.02 0.520034 21.39C0.200034 20.08 0.0600338 18.75 0.0600338 17.41H0.0400338ZM4.01003 17.4C4.01003 24.8 10.02 30.81 17.41 30.79C24.83 30.77 30.82 24.76 30.79 17.38C30.75 9.97001 24.82 4.04001 17.42 4.02001C10.04 4.00001 4.02003 10 4.02003 17.41L4.01003 17.4Z" fill="#414141" stroke="#414141" stroke-width="0.09" stroke-miterlimit="10"/>
<path id="Vector_2" d="M19.8101 15.87C19.8101 17.81 19.8101 19.76 19.8101 21.7C19.8101 22.87 18.9601 23.76 17.8401 23.77C16.7401 23.77 15.8401 22.87 15.8401 21.72C15.8401 17.8 15.8401 13.89 15.8401 9.97C15.8401 8.78 16.7301 7.93 17.8901 7.94C18.9801 7.95 19.8101 8.83 19.8101 9.99C19.8101 11.95 19.8101 13.91 19.8101 15.86V15.87Z" fill="#414141" stroke="#414141" stroke-width="0.09" stroke-miterlimit="10"/>
<path id="Vector_3" d="M25.7401 18.81C25.7401 19.8 25.7401 20.78 25.7401 21.77C25.7401 22.88 24.8901 23.75 23.8001 23.77C22.7401 23.8 21.7901 22.94 21.7701 21.85C21.7401 19.83 21.7401 17.81 21.7701 15.79C21.7901 14.65 22.7201 13.84 23.8801 13.87C24.9201 13.9 25.7301 14.79 25.7401 15.89C25.7401 16.86 25.7401 17.83 25.7401 18.8V18.81Z" fill="#414141" stroke="#414141" stroke-width="0.09" stroke-miterlimit="10"/>
<path id="Vector_4" d="M13.88 20.81C13.88 21.12 13.88 21.43 13.88 21.73C13.88 22.87 13.03 23.75 11.93 23.76C10.85 23.78 9.94002 22.89 9.91002 21.77C9.89002 21.11 9.89002 20.44 9.91002 19.78C9.94002 18.65 10.83 17.79 11.92 17.8C13.03 17.81 13.87 18.68 13.88 19.82C13.88 20.14 13.88 20.47 13.88 20.79V20.81Z" fill="#414141" stroke="#414141" stroke-width="0.09" stroke-miterlimit="10"/>
</g>
</g>
</g>
<defs>
<clipPath id="clip0_2002_122">
<rect width="39.62" height="39.61" fill="white"/>
</clipPath>
</defs>
</svg>
