<svg width="33" height="33" viewBox="0 0 33 33" fill="none" xmlns="http://www.w3.org/2000/svg">
<g id="Setting 1" clip-path="url(#clip0_2002_644)">
<g id="Layer 1">
<g id="Group">
<path id="Vector" d="M3.04001 24.93C3.07001 24.05 3.36001 23.29 3.99001 22.66C4.26001 22.39 4.44001 22.09 4.37001 21.69C4.27001 21.13 3.86001 20.81 3.25001 20.8C1.58001 20.77 0.240008 19.66 0.050008 18.02C-0.059992 17.09 0.020008 16.13 0.010008 15.19C0.010008 14.9 0.060008 14.63 0.140008 14.35C0.540008 12.99 1.76001 12.06 3.18001 12.05C3.68001 12.05 4.07001 11.89 4.28001 11.41C4.49001 10.93 4.32001 10.54 3.98001 10.18C2.70001 8.83 2.73001 6.92 4.04001 5.59C4.55001 5.07 5.07001 4.56 5.59001 4.05C6.94001 2.73 8.84001 2.71 10.2 4.02C10.55 4.36 10.95 4.49 11.41 4.29C11.86 4.09 12.03 3.72 12.04 3.25C12.1 1.35 13.47 0 15.35 0C16.11 0 16.88 0 17.64 0C19.37 0.01 20.79 1.42 20.81 3.14C20.81 3.65 20.97 4.07 21.45 4.28C21.94 4.5 22.34 4.3 22.71 3.95C24 2.72 25.91 2.73 27.2 3.96C27.78 4.51 28.34 5.08 28.89 5.65C30.12 6.93 30.13 8.82 28.92 10.11C28.65 10.39 28.43 10.69 28.49 11.1C28.57 11.67 29 12.01 29.61 12.03C31.29 12.06 32.65 13.2 32.81 14.84C32.9 15.77 32.83 16.71 32.84 17.64C32.84 17.93 32.79 18.2 32.71 18.48C32.31 19.84 31.09 20.77 29.67 20.78C29.17 20.78 28.78 20.94 28.57 21.42C28.36 21.9 28.53 22.29 28.87 22.65C30.14 23.99 30.12 25.9 28.83 27.22C28.31 27.75 27.79 28.27 27.26 28.79C25.92 30.1 24.03 30.13 22.67 28.84C22.31 28.5 21.91 28.34 21.43 28.55C20.97 28.75 20.8 29.14 20.8 29.63C20.78 31.43 19.37 32.81 17.58 32.82C16.82 32.82 16.05 32.82 15.29 32.82C13.48 32.82 12.09 31.46 12.05 29.65C12.03 28.98 11.78 28.63 11.22 28.49C10.79 28.38 10.48 28.57 10.18 28.85C9.06001 29.91 7.50001 30.09 6.23001 29.3C6.05001 29.19 5.87001 29.06 5.72001 28.91C5.11001 28.31 4.50001 27.71 3.91001 27.1C3.33001 26.5 3.08001 25.76 3.05001 24.93H3.04001ZM22.1 26.27C22.74 26.29 23.5 26.6 24.13 27.2C24.69 27.74 25.21 27.73 25.77 27.18C26.23 26.72 26.69 26.26 27.15 25.8C27.75 25.2 27.76 24.7 27.19 24.09C26.64 23.5 26.32 22.81 26.29 22.01C26.2 20.02 27.83 18.57 29.55 18.6C30.21 18.61 30.65 18.17 30.65 17.52C30.65 16.78 30.65 16.04 30.65 15.3C30.65 14.67 30.21 14.25 29.57 14.23C29.4 14.23 29.22 14.23 29.06 14.21C27.78 13.97 26.87 13.27 26.46 12.03C26.04 10.79 26.33 9.68 27.22 8.72C27.75 8.16 27.74 7.63 27.19 7.08C26.73 6.62 26.27 6.16 25.81 5.7C25.21 5.1 24.72 5.08 24.1 5.67C23.53 6.2 22.86 6.52 22.09 6.57C20.19 6.69 18.65 5.25 18.62 3.34C18.62 2.62 18.19 2.2 17.47 2.2C16.77 2.2 16.08 2.2 15.38 2.2C14.68 2.2 14.26 2.62 14.24 3.32C14.24 3.5 14.24 3.69 14.2 3.86C13.96 5.13 13.22 6.01 12 6.41C10.76 6.81 9.65001 6.51 8.70001 5.61C8.18001 5.12 7.64001 5.12 7.13001 5.61C6.66001 6.07 6.19001 6.54 5.73001 7.01C5.10001 7.65 5.09001 8.11 5.70001 8.77C6.23001 9.34 6.54001 10.02 6.57001 10.79C6.66001 12.69 5.23001 14.19 3.34001 14.22C2.64001 14.22 2.21001 14.65 2.21001 15.34C2.21001 16.07 2.21001 16.8 2.21001 17.53C2.21001 18.15 2.65001 18.57 3.26001 18.59C3.46001 18.59 3.67001 18.59 3.87001 18.63C5.14001 18.87 6.02001 19.61 6.42001 20.83C6.82001 22.07 6.51001 23.18 5.62001 24.13C5.13001 24.65 5.14001 25.2 5.62001 25.7C6.08001 26.17 6.55001 26.64 7.02001 27.1C7.66001 27.73 8.12001 27.73 8.79001 27.13C9.82001 26.21 11 25.97 12.27 26.51C13.55 27.06 14.2 28.08 14.24 29.48C14.26 30.2 14.67 30.62 15.39 30.62C16.07 30.62 16.76 30.62 17.44 30.62C18.2 30.62 18.61 30.21 18.62 29.44C18.64 27.67 20.09 26.25 22.1 26.25V26.27Z" fill="#414141"/>
<path id="Vector_2" d="M8.78003 16.39C8.78003 12.16 12.21 8.75 16.45 8.75C20.71 8.75 24.11 12.18 24.1 16.48C24.1 20.64 20.65 24.07 16.48 24.07C12.18 24.07 8.78003 20.67 8.78003 16.39ZM21.91 16.4C21.89 13.38 19.42 10.92 16.43 10.94C13.4 10.96 10.95 13.44 10.97 16.46C10.99 19.44 13.48 21.88 16.47 21.87C19.45 21.87 21.93 19.36 21.91 16.39V16.4Z" fill="#414141"/>
</g>
</g>
</g>
<defs>
<clipPath id="clip0_2002_644">
<rect width="32.87" height="32.83" fill="white"/>
</clipPath>
</defs>
</svg>
